<?xml version="1.0" encoding="utf-8"?>
<svg version="1.1" id="Ebene_1"
	xmlns="http://www.w3.org/2000/svg" xmlns:xlink="http://www.w3.org/1999/xlink"
	x="0px" y="0px"
	viewBox="0 0 250 45"
	style="enable-background:new 0 0 250 45;background-color: #FFF;" xml:space="preserve">
	<path fill="#0D181C" d="M189.3 41.7v-.3l-4.7-15c-.1-.4-.6-.7-1.1-.7s-.9.2-1.1.7l-4.7 15v.3c0 .5.4.9.9.9.4 0 .7-.2.8-.6l1.1-3.5h5.9l1.1 3.5c.1.5.5.6.9.6.5 0 .9-.4.9-.9zm-3.4-5h-4.8l2.4-7.7 2.4 7.7zm12.3-9.9c0-.5-.3-.9-.9-.9h-7.1c-.6 0-.9.5-.9.9 0 .5.3.9.9.9h2.6v14c0 .6.5.9.9.9.5 0 .9-.3.9-.9v-14h2.6c.7 0 1-.4 1-.9zm7.9 0c0-.5-.3-.9-.9-.9h-7.1c-.6 0-.9.5-.9.9 0 .5.3.9.9.9h2.6v14c0 .6.5.9.9.9.5 0 .9-.3.9-.9v-14h2.6c.7 0 1-.4 1-.9zm12.2 14.9v-.3l-4.7-15c-.1-.4-.6-.7-1.1-.7s-.9.2-1.1.7l-4.7 15v.3c0 .5.4.9.9.9.4 0 .7-.2.8-.6l1.1-3.5h5.9l1.1 3.5c.1.5.5.6.9.6.5 0 .9-.4.9-.9zm-3.4-5h-4.8l2.4-7.7 2.4 7.7zm15.3 2v-.2c0-.6-.4-.9-.9-.9-.4 0-.8.2-.9.8-.3 1.3-1.3 2.3-2.7 2.3h-.2c-1.5 0-2.7-1.2-2.7-2.7v-7.8c0-1.5 1.2-2.7 2.7-2.7h.2c1.4 0 2.4 1 2.7 2.3.1.5.5.8.9.8.5 0 .9-.3.9-.9v-.1c-.3-2.2-2.2-3.9-4.5-3.9h-.2c-2.5 0-4.6 2-4.6 4.5V38c0 2.5 2 4.6 4.6 4.6h.2c2.2 0 4.1-1.7 4.5-3.9zm12.4 3c0-.1 0-.3-.1-.4l-4.2-8.6 3.8-5.5c.1-.2.2-.4.2-.5 0-.5-.4-.9-1-.9-.3 0-.5.1-.7.4l-5.5 8.1v-7.6c0-.6-.5-.9-.9-.9-.5 0-.9.3-.9.9v15c0 .6.5.9.9.9.5 0 .9-.3.9-.9v-4.2l2.1-3 3.7 7.7c.2.4.5.5.8.5.5-.1.9-.5.9-1zm-55.1-24.1c0-.5-.3-.9-.9-.9H181v-14c0-.6-.5-.9-.9-.9-.5 0-.9.3-.9.9v14.9c0 .5.4.9.9.9h6.6c.5 0 .8-.5.8-.9zm13.4 0c0-.5-.3-.9-.9-.9h-6.6v-5.8h4.6c.6 0 .9-.5.9-.9 0-.5-.3-.9-.9-.9h-4.6V3.7h6.6c.6 0 .9-.5.9-.9 0-.5-.3-.9-.9-.9h-7.5c-.5 0-.9.4-.9.9v14.8c0 .5.4.9.9.9h7.5c.6 0 .9-.5.9-.9zm14.3.1v-.3l-4.7-15c-.1-.4-.6-.7-1.1-.7s-.9.2-1.1.7l-4.7 15v.3c0 .5.4.9.9.9.4 0 .7-.2.8-.6l1.1-3.5h5.9l1.1 3.5c.1.5.5.6.9.6.5 0 .9-.4.9-.9zm-3.5-5H207l2.4-7.7 2.3 7.7zm17.1-6v-.2c0-2.5-2-4.6-4.6-4.6h-4c-.5 0-.9.4-.9.9v14.9c0 .6.5.9.9.9.5 0 .9-.3.9-.9v-6.5h2.4l3.3 6.9c.2.4.5.5.8.5.6 0 1-.4 1-.9 0-.1 0-.3-.1-.4l-3-6.2c1.9-.6 3.3-2.3 3.3-4.4zm-1.9 0c0 1.5-1.1 2.7-2.6 2.7h-3.2V3.7h3.1c1.5 0 2.7 1.2 2.7 2.7v.3zm15.8 10.9V2.7c0-.6-.4-.9-.9-.9s-.9.3-.9.9v11.7l-5.2-11.9c-.3-.6-.7-.8-1.2-.8-.6 0-1.1.3-1.1.9v15c0 .6.5.9.9.9.5 0 .9-.3.9-.9V6l5.2 11.8c.4.8.9.8 1.2.8.6 0 1.1-.3 1.1-1zM148 8.3c0-.7-.6-1.2-1.2-1.2s-1.2.5-1.2 1.2c0 .6.5 1.1 1.2 1.1s1.2-.5 1.2-1.1zm2.9 2c0-.6-.5-1.1-1.2-1.1-.6 0-1.1.5-1.1 1.2 0 .6.5 1.1 1.1 1.1.6-.1 1.2-.6 1.2-1.2zm-5.8 0c0-.7-.5-1.2-1.2-1.2-.6 0-1.2.5-1.2 1.1s.6 1.2 1.2 1.2c.7 0 1.2-.5 1.2-1.1zm3 1.5c0-.6-.6-1.2-1.2-1.2-.7 0-1.2.5-1.2 1.1 0 .7.5 1.2 1.1 1.2.7 0 1.3-.5 1.3-1.1zm5.7.5c0-.6-.5-1.1-1.2-1.1s-1.2.5-1.2 1.2c0 .6.5 1.2 1.2 1.2.6-.1 1.2-.6 1.2-1.3zm-11.5 0c0-.6-.5-1.2-1.1-1.2-.7 0-1.2.5-1.2 1.1 0 .7.5 1.2 1.2 1.2.6.1 1.1-.4 1.1-1.1zm14.3 2c0-.6-.5-1.1-1.2-1.1-.6 0-1.2.5-1.2 1.2 0 .6.6 1.1 1.2 1.1.7 0 1.2-.6 1.2-1.2zm-17.2.1c0-.7-.6-1.2-1.2-1.2s-1.2.5-1.2 1.1.5 1.2 1.2 1.2 1.2-.5 1.2-1.1zm8.7.9c0-.7-.6-1.2-1.2-1.2-.7 0-1.2.5-1.2 1.2 0 .6.5 1.1 1.1 1.1.7 0 1.3-.5 1.3-1.1zm0 3.5c0-.6-.6-1.2-1.2-1.2-.7 0-1.2.6-1.2 1.2s.5 1.2 1.1 1.2c.7 0 1.3-.6 1.3-1.2zm0 3.5c0-.6-.6-1.1-1.2-1.1-.7 0-1.2.5-1.2 1.1s.5 1.2 1.1 1.2c.7 0 1.3-.6 1.3-1.2zm0 3.5c0-.6-.6-1.1-1.2-1.1-.7 0-1.2.5-1.2 1.1s.5 1.2 1.1 1.2c.7 0 1.3-.5 1.3-1.2zm0 3.5c0-.6-.6-1.2-1.2-1.2-.7 0-1.2.5-1.2 1.1s.5 1.2 1.1 1.2c.7.1 1.3-.5 1.3-1.1zm0 3.6c0-.6-.6-1.2-1.2-1.2-.7 0-1.2.5-1.2 1.2 0 .6.5 1.2 1.1 1.2.7-.1 1.3-.6 1.3-1.2zm20.3 11.5h-1V.6h1v43.8M7.3 1.1h118.4v43.1H7.3z"/>
	<path fill="#E4003A" d="M13.8 34.4v3.3h105.5v-3.3z"/>
	<path fill="#FFF" d="M50.9 22.7c0 3.7-1.9 5.7-5.3 5.7s-5.3-2-5.3-5.7V8.8h-3.2v14.1c0 5.3 3.1 8.4 8.4 8.4 5.1 0 8.5-3.4 8.5-8.4V8.8h-3.2v13.9h.1zM20.2 8.6c-1.9 0-3.7.1-5.6.4h-.4v21.7h.4c1.7.2 3.6.4 5.8.4 8.6 0 12.4-5.7 12.4-11.4 0-5.4-4-11.1-12.6-11.1zm9.2 11c0 5.4-3.3 8.6-8.8 8.6-1.5 0-2.5 0-3.3-.2V11.5c.7-.1 1.9-.2 3-.2 5.7.1 9.1 3.2 9.1 8.3zm36.1-11c-1.9 0-3.7.1-5.6.4h-.4v21.7h.4c1.7.2 3.6.4 5.8.4 8.6 0 12.4-5.7 12.4-11.4 0-5.4-3.9-11.1-12.6-11.1zm9.3 11c0 5.4-3.3 8.6-8.8 8.6-1.5 0-2.5 0-3.3-.2V11.5c.7-.1 1.9-.2 3-.2 5.6.1 9.1 3.2 9.1 8.3zM83 31h13.3v-3H86.1v-6.8h9.2v-2.9h-9.2v-6.6h10.2V8.8H83zm32.7-7.2L102.1 8.5h-.5v22.4h3.2v-15l13.6 15.4h.5V8.8h-3.2z"/>
</svg>
