<?xml version="1.0" encoding="UTF-8"?> <svg xmlns="http://www.w3.org/2000/svg" width="123" height="123" fill="none"><g clip-path="url(#a)"><path fill="#FFA700" d="M6.3 0v119.43s0 3.58 3.35 3.58h103.7s3.34 0 3.34-3.57V0H6.3z"></path><path fill="#fff" d="M28.35 110.98c-.1.4-.2.8-.2 1.1 0 1.14.9 1.84 2.7 1.84 2.4 0 3.3-.88 3.86-2.73l1.58-5.33h-2.24l-1.57 5.28c-.17.6-.5.84-1.22.84-.65 0-.88-.33-.72-.86l1.57-5.27h-2.23l-1.52 5.1zM58.44 113.8h5.27l.58-1.86h-3.06l.36-1.2h2.68l.54-1.83h-2.67l.36-1.2h3.04l.54-1.82H60.8l-2.36 7.92zM92.96 105.77c-2.17 0-3.8.25-4.87 4.24-.2.7-.3 1.3-.3 1.83 0 1.28.68 2.1 2.88 2.1.56 0 1.28-.1 1.78-.26l.54-1.84s-.58.15-1.5.15c-1 0-1.3-.32-1.3-.83 0-.3.1-.67.2-1.07.55-2.12 1.16-2.36 2.27-2.36.92 0 1.45.15 1.45.15l.57-1.9c-.33-.1-1.18-.2-1.74-.2zM20.82 113.75c.3.08 1.1.17 1.73.17 2.85 0 4-.77 4.64-2.94l1.5-5.1H26.5l-1.35 4.55c-.04.14-.13.44-.25.66-.37.65-1.1.84-1.93.84-.84 0-1.56-.1-1.56-.1l-.58 1.9zM76.3 113.8h2.22l.78-2.66h.6l.67 2.66h2.4l-.9-3c.68-.2 1.44-.44 1.96-2.2.14-.47.2-.96.2-1.2 0-.97-.57-1.53-2-1.53h-3.56l-2.36 7.93zm3.5-4.32l.52-1.8h1c.4 0 .6.2.6.52 0 .74-.38 1.28-1.14 1.28h-.98zM50.53 109.24h-3l-.45 1.47h.95l-.38 1.26s-.32.06-.68.06c-.8 0-.94-.35-.94-.86 0-.3.08-.68.2-1.1.53-2.1 1.17-2.38 2.28-2.38 1.16 0 2.07.23 2.07.23l.58-1.84c-.32-.1-1.35-.3-2.35-.3-2.17 0-3.8.24-4.88 4.24-.18.68-.26 1.28-.26 1.8 0 1.3.75 2.12 2.92 2.12 1.04 0 2.15-.17 2.65-.34l1.3-4.34zM67.25 105.88h2.24l-2.37 7.92H64.9l2.35-7.92zM37.56 105.88h1.87l1.16 4.22h.02s.2-.7.36-1.28l.88-2.94h2.2l-2.36 7.92h-1.87l-1.2-4.16h-.02s-.15.64-.35 1.3l-.85 2.86h-2.2l2.36-7.92zM70.8 105.88h1.88l1.16 4.22h.04s.18-.7.35-1.28l.87-2.94h2.2l-2.36 7.92h-1.87l-1.18-4.16h-.04s-.17.64-.35 1.3l-.85 2.86h-2.2l2.36-7.92zM86 105.88h2.22l-2.36 7.92h-2.23l2.36-7.92zM52.76 105.88H55l-.93 3.08h2.2l.9-3.08h2.24l-2.35 7.92h-2.23l.9-3.02h-2.18l-.9 3.02H50.4l2.36-7.92zM95.9 105.88h2.22l-.92 3.08h2.2l.9-3.08h2.24l-2.36 7.92h-2.23l.9-3.02h-2.2l-.9 3.02h-2.22l2.36-7.92zM29.04 105.2l-3.4-3.25-5.2 3.25h2.94l-1.77 5.9s.6.1 1.4.1c.65 0 1-.2 1.2-.5.07-.15.1-.23.2-.5l1.5-5h3.14z"></path><path fill="#00576C" d="M92.22 70.55c1-.56 2.1-.84 3.22-.84.6 0 1.15.16 1.68.47.53.3 1 .77 1.38 1.38.4.63.72 1.4.96 2.34.24.92.36 2.03.36 3.3 0 2.55-.5 4.47-1.48 5.73-1 1.27-2.26 1.9-3.8 1.9-1.52 0-3.15-.6-4.87-1.77V72.88c.68-1 1.53-1.78 2.55-2.33zm3.04 16.78c1 0 1.96-.23 2.9-.7.94-.45 1.77-1.1 2.5-1.97.73-.85 1.3-1.9 1.75-3.13.45-1.24.67-2.63.67-4.2 0-3.17-.6-5.67-1.84-7.47-1.22-1.8-3.04-2.7-5.46-2.7-2.36 0-4.4.88-6.1 2.65v-.2c0-.72-.12-1.26-.36-1.6-.24-.32-.7-.5-1.38-.5h-1.1l-.26.25v27.53l.25.24h1.17c.68 0 1.14-.15 1.36-.46.22-.3.34-.8.34-1.52v-7.82c1.76 1.07 3.63 1.6 5.6 1.6zM69.4 84.58c-.72-.4-1.3-.97-1.74-1.68-.44-.7-.77-1.54-.98-2.5-.22-.93-.33-1.96-.33-3.07 0-1.1.1-2.14.33-3.1.2-.96.55-1.8 1-2.5.46-.72 1.04-1.27 1.74-1.7.7-.4 1.53-.6 2.5-.6 1 0 1.86.2 2.58.64.7.42 1.3 1 1.76 1.72.45.7.8 1.55 1 2.5.22.97.33 1.98.33 3.03 0 2.37-.5 4.28-1.45 5.7-.96 1.45-2.35 2.16-4.18 2.16-1 0-1.86-.2-2.57-.62zm11.42-7.24c0-1.5-.2-2.88-.6-4.13-.4-1.24-.97-2.32-1.72-3.2-.76-.9-1.68-1.6-2.78-2.1-1.1-.5-2.35-.75-3.78-.75-1.42 0-2.68.25-3.77.75-1.1.5-2.02 1.2-2.78 2.1-.77.88-1.33 1.96-1.72 3.2-.38 1.26-.57 2.64-.57 4.14 0 1.5.2 2.87.58 4.13.4 1.25.95 2.3 1.7 3.2.76.88 1.7 1.57 2.8 2.07 1.08.5 2.34.75 3.76.75 2.42 0 4.38-.7 5.9-2.1 2-1.85 2.98-4.53 2.98-8.06zm-24.6-8.32c-.86-1.14-2.24-1.72-4.15-1.72-1.3 0-2.62.26-3.93.8-1.3.52-2.45 1.2-3.4 2.05v-10.2c0-.7-.13-1.2-.35-1.52-.24-.3-.7-.45-1.37-.45h-1.15l-.26.24v28.8c.43.07.94.1 1.54.1.62 0 1.15-.03 1.58-.1V73c.82-.88 1.84-1.6 3.07-2.18 1.23-.57 2.4-.85 3.55-.85 1.14 0 1.94.32 2.4 1 .45.67.68 1.8.68 3.4v10.92c0 1.3.54 1.93 1.62 1.93.85 0 1.5-.2 2-.63-.34-.74-.5-1.86-.5-3.36V73.5c-.02-1.84-.45-3.33-1.32-4.48zM27 87.5c2.46 0 4.43-.5 5.88-1.48 1.45-.97 2.17-2.34 2.17-4.1 0-2.53-1.76-4.44-5.3-5.73l-2.5-.9c-1.12-.4-1.92-.83-2.44-1.26-.5-.43-.75-1.04-.75-1.8 0-.7.33-1.34 1-1.9.67-.55 1.66-.82 2.96-.82.75 0 1.57.1 2.47.27.9.18 1.88.5 2.96.94.66-.6 1-1.37 1-2.3-2.12-.86-4.23-1.3-6.33-1.3-1.05 0-2.02.14-2.9.4-.88.26-1.65.64-2.3 1.1-.66.48-1.17 1.05-1.54 1.73-.37.67-.56 1.4-.56 2.23 0 1.23.46 2.3 1.37 3.17.9.9 2.3 1.66 4.1 2.3l2.4.88c1.04.37 1.82.82 2.35 1.36.53.55.8 1.22.8 2-.04.36-.15.7-.35 1.04-.2.35-.5.65-.86.93s-.8.5-1.34.67c-.53.18-1.15.26-1.86.26-.83 0-1.75-.13-2.76-.4-1.02-.26-2.17-.73-3.45-1.42-.8.6-1.23 1.32-1.25 2.13 2.27 1.33 4.62 2 7.04 2M94.56 27.14c0 .84.17 1.62.5 2.36.67.4 1.9.63 3.2.63 1.27 0 2.2-.23 3-.63.3-.73.47-1.52.47-2.36 0-.84-.16-1.63-.48-2.36-.7-.44-1.72-.65-3-.65-1.25 0-2.4.2-3.2.65-.32.73-.5 1.52-.5 2.36zm6.58 6.95c-.78-.88-2-1.32-3.4-1.32h-.9c-.48 0-1.02.03-1.62.06-.6.04-1.26.1-1.97.15-.16.6-.24 1.37-.24 2.26 0 .93.1 1.65.25 2.16h.6c1.3 0 1.93.78 1.93 2.36v13.45c.46.08.98.14 1.54.18.55.05 1.12.06 1.7.06.57 0 1.25 0 1.8-.05.54-.03 1.05-.1 1.5-.17v-15.6c0-1.5-.38-2.68-1.17-3.54zM82.72 53.46c1.13 0 2.23-.08 3.15-.24V37.3l4.9.08c.17-.67.25-1.4.25-2.2 0-.82-.08-1.57-.24-2.26L85.4 33c-.1-.73-.16-1.5-.16-2.27 0-1.87.9-2.8 2.74-2.8.82 0 1.87.18 3.15.56.4-.45.75-1.07 1.02-1.9.27-.83.4-1.6.37-2.3-2.05-.76-4.13-1.14-6.26-1.14-2.12 0-3.97.67-5.3 2C79.65 26.52 79 28.2 79 30.23c0 .82.05 1.72.2 2.72L76 32.9c-.16.7-.24 1.46-.24 2.26 0 .8.08 1.54.25 2.2l3.52-.03v15.9c.98.16 2.08.24 3.2.24zM68.1 38.62c.4 1.02.58 2.5.58 4.45 0 1.92-.2 3.4-.57 4.45-.38 1.05-1.17 1.56-2.38 1.56-.6 0-1.1-.13-1.46-.4-.38-.28-.66-.7-.87-1.24-.22-.56-.36-1.25-.42-2.07-.07-.83-.1-1.8-.1-2.95 0-.73.04-1.4.12-2.05.08-.64.23-1.2.45-1.7.22-.48.52-.86.88-1.15.38-.28.86-.43 1.47-.43 1.15 0 1.92.5 2.3 1.52zm-2.32-6.28c-1.52 0-2.88.25-4.05.77-1.17.53-2.15 1.26-2.94 2.2-.8.95-1.4 2.08-1.8 3.4-.42 1.3-.62 2.78-.62 4.4 0 1.6.2 3.07.6 4.4.42 1.33 1.02 2.46 1.83 3.4.8.93 1.8 1.65 2.95 2.17 1.16.5 2.5.77 4.03.77 1.53 0 2.88-.25 4.05-.75s2.16-1.23 2.97-2.16c.8-.94 1.4-2.07 1.84-3.4.42-1.33.63-2.8.63-4.43 0-3.62-.98-6.4-2.94-8.36-1.67-1.6-3.85-2.4-6.55-2.4zM42.72 40.1v13.13c.93.16 2 .24 3.2.24 1.22 0 2.28-.08 3.18-.24V40.6c.88-1.4 2-2.08 3.36-2.08.93.1 1.62.24 2.08.4.5-.8.88-1.8 1.17-2.94.3-1.15.43-2.15.43-3-1.1-.2-2-.3-2.7-.3-2.36 0-4.07 1.2-5.1 3.64-1-2.27-2.73-3.5-5.24-3.7-.4.3-.77.78-1.16 1.44-.38.66-.64 1.27-.78 1.8 1.04.8 1.56 2.2 1.56 4.24zM32.5 42.8c0 4.07-.93 6.12-2.78 6.12-.74 0-1.62-.3-2.66-.93v-8.95c.84-1.1 1.84-1.63 2.98-1.63 1.64 0 2.46 1.8 2.46 5.37zm1.55 10.08c1-.5 1.85-1.2 2.6-2.13.72-.92 1.3-2.05 1.72-3.37.42-1.33.63-2.8.63-4.43 0-1.62-.16-3.08-.47-4.4-.3-1.3-.77-2.4-1.38-3.32-.6-.92-1.35-1.63-2.22-2.13-.87-.5-1.88-.75-3.02-.75-2.22 0-4.1.77-5.65 2.3-.76-1.3-1.92-1.98-3.48-1.98H21.1l-.3.3V61.7l.3.3h2.45c1.3 0 2.22-.3 2.74-.86.5-.57.77-1.56.77-2.97v-5.4c1.25.56 2.5.84 3.75.84 1.16 0 2.24-.26 3.23-.76"></path></g><defs><clipPath id="a"><path fill="#fff" d="M0 0h123v123H0z"></path></clipPath></defs></svg> 