<?xml version="1.0" encoding="UTF-8"?> <!-- Generator: Adobe Illustrator 24.0.1, SVG Export Plug-In . SVG Version: 6.00 Build 0) --> <svg xmlns="http://www.w3.org/2000/svg" xmlns:xlink="http://www.w3.org/1999/xlink" version="1.1" id="Ebene_1" x="0px" y="0px" viewBox="0 0 24 24" style="enable-background:new 0 0 24 24;" xml:space="preserve"> <style type="text/css"> .st0{fill:#FFFFFF;} </style> <path class="st0" d="M8.7,7.9C8.7,8.4,8.8,8.7,9,9c0.3,0.3,0.6,0.4,1,0.4c0.4,0,0.8-0.1,1-0.4c0.3-0.3,0.4-0.6,0.4-1.1V5.2 c0-0.4-0.1-0.7-0.4-1c-0.3-0.3-0.6-0.4-1-0.4c-0.4,0-0.8,0.1-1.1,0.4c-0.3,0.2-0.4,0.6-0.4,1V7.9z M9.7,5.1c0-0.1,0-0.2,0.1-0.3 c0.1-0.1,0.2-0.1,0.3-0.1c0.1,0,0.2,0,0.3,0.1c0.1,0.1,0.1,0.2,0.1,0.3V8c0,0.1,0,0.3-0.1,0.3c-0.1,0.1-0.2,0.1-0.3,0.1 c-0.1,0-0.2,0-0.3-0.1C9.7,8.3,9.7,8.2,9.7,8V5.1z M6.4,9.3h1.1v-3L8.7,2H7.6L6.9,4.9H6.9L6.2,2H5.1l1.3,4.4V9.3z M13,9.4 c0.2,0,0.4-0.1,0.6-0.2c0.2-0.1,0.4-0.3,0.6-0.5v0.6h1V3.9h-1V8c-0.1,0.1-0.2,0.2-0.3,0.3c-0.1,0.1-0.2,0.1-0.3,0.1 c-0.1,0-0.2,0-0.2-0.1c0-0.1-0.1-0.1-0.1-0.3V3.9h-1v4.5c0,0.3,0.1,0.6,0.2,0.7C12.6,9.3,12.8,9.4,13,9.4z M19.9,13.4 c0-1.3-1-2.4-2.3-2.4c-1.8-0.1-3.7-0.1-5.6-0.1c-1.9,0-3.8,0-5.6,0.1c-1.3,0-2.3,1.1-2.3,2.4C4,14.4,4,15.4,4,16.5 c0,1,0,2.1,0.1,3.1c0,1.3,1,2.4,2.3,2.4C8.2,22,10.1,22,12,22c1.9,0,3.8,0,5.6-0.1c1.3,0,2.3-1.1,2.3-2.4c0.1-1,0.1-2.1,0.1-3.1 C20,15.4,20,14.4,19.9,13.4z M7.5,20H6.4v-6.2H5.2v-1.1h3.4v1.1H7.5V20z M11.4,20h-1v-0.6c-0.2,0.2-0.4,0.4-0.6,0.5 c-0.2,0.1-0.4,0.2-0.6,0.2c-0.2,0-0.4-0.1-0.5-0.2c-0.1-0.2-0.2-0.4-0.2-0.7v-4.5h1v4.1c0,0.1,0,0.2,0.1,0.3c0,0.1,0.1,0.1,0.2,0.1 c0.1,0,0.2,0,0.3-0.1c0.1-0.1,0.2-0.2,0.3-0.3v-4.1h1L11.4,20L11.4,20z M15.1,18.9c0,0.4-0.1,0.7-0.2,0.9c-0.2,0.2-0.4,0.3-0.7,0.3 c-0.2,0-0.4,0-0.5-0.1c-0.1-0.1-0.3-0.2-0.4-0.4V20h-1v-7.3h1v2.3c0.1-0.2,0.3-0.3,0.4-0.4c0.1-0.1,0.3-0.1,0.4-0.1 c0.3,0,0.5,0.1,0.7,0.3c0.2,0.2,0.2,0.6,0.2,1V18.9z M18.7,17.4h-1.9v1c0,0.3,0,0.5,0.1,0.6c0.1,0.1,0.2,0.2,0.3,0.2 c0.2,0,0.3,0,0.3-0.1c0.1-0.1,0.1-0.3,0.1-0.6v-0.4h1v0.4c0,0.5-0.1,1-0.4,1.2c-0.2,0.3-0.6,0.4-1.1,0.4c-0.4,0-0.8-0.1-1-0.4 c-0.3-0.3-0.4-0.7-0.4-1.2v-2.4c0-0.5,0.1-0.8,0.4-1.1c0.3-0.3,0.6-0.4,1.1-0.4c0.4,0,0.8,0.1,1,0.4c0.2,0.3,0.4,0.7,0.4,1.2V17.4z M17.2,15.4c-0.2,0-0.3,0-0.3,0.1c-0.1,0.1-0.1,0.3-0.1,0.5v0.5h0.9v-0.5c0-0.2,0-0.4-0.1-0.5C17.5,15.5,17.4,15.4,17.2,15.4z M13.7,15.4c-0.1,0-0.1,0-0.2,0c-0.1,0-0.1,0.1-0.2,0.2V19c0.1,0.1,0.2,0.1,0.2,0.2s0.2,0.1,0.2,0.1c0.1,0,0.2,0,0.3-0.1 c0.1-0.1,0.1-0.2,0.1-0.4V16c0-0.2,0-0.3-0.1-0.4C13.9,15.4,13.8,15.4,13.7,15.4z"></path> </svg> 