<?xml version="1.0" encoding="UTF-8"?> <!-- Generator: Adobe Illustrator 24.0.1, SVG Export Plug-In . SVG Version: 6.00 Build 0) --> <svg xmlns="http://www.w3.org/2000/svg" xmlns:xlink="http://www.w3.org/1999/xlink" version="1.1" id="Ebene_1" x="0px" y="0px" viewBox="0 0 24 24" style="enable-background:new 0 0 24 24;" xml:space="preserve"> <style type="text/css"> .st0{fill:#FFFFFF;} </style> <path class="st0" d="M22,14.3V22h-4.3v-7.2c0-1.8-0.6-3.1-2.2-3.1c-1.2,0-1.9,0.8-2.2,1.6c-0.1,0.3-0.1,0.7-0.1,1.1V22H8.9 c0,0,0.1-12.2,0-13.5h4.3v1.9c0,0,0,0,0,0h0v0c0.6-0.9,1.6-2.2,3.9-2.2C19.9,8.2,22,10.1,22,14.3z M4.4,2C3,2,2,3,2,4.3 c0,1.3,0.9,2.3,2.4,2.3h0c1.5,0,2.4-1,2.4-2.3C6.8,3,5.9,2,4.4,2z M2.3,22h4.3V8.5H2.3V22z"></path> </svg> 