<?xml version="1.0" encoding="UTF-8"?> <!-- Generator: Adobe Illustrator 24.0.1, SVG Export Plug-In . SVG Version: 6.00 Build 0) --> <svg xmlns="http://www.w3.org/2000/svg" xmlns:xlink="http://www.w3.org/1999/xlink" version="1.1" id="Ebene_1" x="0px" y="0px" viewBox="0 0 338.5 79.9" style="enable-background:new 0 0 338.5 79.9;" xml:space="preserve"> <style type="text/css"> .st0{fill:#FFFFFF;} .st1{fill:#B6BACC;} </style> <g> <path class="st0" d="M264.8,46c0-7.1,2.6-10.4,5.9-10.4c2,0,3.9,0.9,5.7,2.1v14.4c-1.8,2.6-4.3,3.7-6.3,3.7 C267.3,55.7,264.8,52.9,264.8,46 M258.7,45.9c0,8.7,3.4,14.7,10,14.7c3.5,0,6.4-1.7,8.4-3.9c0.8,1.9,2.3,3.2,4.6,3.6 c0.9-0.6,1.9-2,2.2-3.1c-1.2-1.1-1.6-3.2-1.6-5.5V21.1c0-2.7-0.7-3.8-3.2-3.8h-2.3l-0.4,0.3v15.1c-2-1.1-4.2-1.9-6.5-1.9 C264.3,30.8,258.7,35.6,258.7,45.9 M242.6,31.3c-0.2,0.8-0.3,1.5-0.3,2.2c0,0.8,0.1,1.4,0.3,2.1h0.6c1.9,0,2.6,0.9,2.6,3v21.2 c0.8,0.2,1.9,0.2,3,0.2c1,0,2.1-0.1,3-0.2V36.3c0-3.2-1.8-5.2-4.7-5.2h-0.8C245.4,31.1,244,31.2,242.6,31.3 M247.7,26.6 c1,0,2.6-0.3,3.2-0.8c0.3-0.7,0.5-1.7,0.5-2.6c0-0.8-0.2-1.9-0.5-2.6c-0.6-0.4-2.1-0.7-3.2-0.7c-1.2,0-2.5,0.3-3.2,0.7 c-0.3,0.7-0.5,1.7-0.5,2.6c0,0.8,0.2,1.9,0.5,2.6C245.1,26.4,246.5,26.6,247.7,26.6 M217.2,30.9c-1.4,0-2.9,0.5-3.8,1.3 c0.8,1.3,1,3.2,1,5.2v13.5c0,5.3,2.3,9.5,7.7,9.5c3.7,0,7.1-1.9,9.7-4.3c0.8,2.1,2.3,3.7,4.9,4.2c1-0.6,1.9-1.9,2.3-3 c-1.3-1.2-1.6-3.2-1.6-5.5V31.3c-0.9-0.1-2-0.2-3-0.2c-1.1,0-2.2,0.1-3,0.2v20.2c-2.1,2.2-5,3.5-7.2,3.5c-2.8,0-3.6-1.7-3.6-5.6 V34.7C220.4,32.2,219.5,30.9,217.2,30.9 M175.7,40.4c0,10.8,4.5,20.3,16.5,20.3c5.7,0,10.8-1.2,14.3-2.5V43.1 c0-2.5-1.2-4.1-4.4-4.1l-8.9,0.1c-0.3,0.8-0.5,1.8-0.5,2.6c0,2,0.9,2.7,2.9,2.7h5.1c-0.1,1.2-0.1,2.4-0.1,3.7v6.5 c-1.9,0.6-4.4,1-7.4,1c-7.2,0-11.1-5-11.1-15.1c0-11.4,4.8-15.6,10.7-15.6c3.9,0,7.7,1.4,10.6,3.6c1.3-0.9,2.7-2.7,3-4.6 c-3.5-2.6-8.5-4.2-13.5-4.2C184.3,19.6,175.7,25.7,175.7,40.4 M150.9,41.9c-0.2,0.8-0.3,1.8-0.3,2.6s0.1,1.7,0.3,2.5h14.4 c0.2-0.8,0.3-1.8,0.3-2.5c0-0.8-0.1-1.8-0.3-2.6H150.9z M129.7,31.3c-0.2,0.8-0.3,1.5-0.3,2.2c0,0.8,0.1,1.4,0.3,2.1h0.6 c1.9,0,2.6,0.9,2.6,3v21.2c0.8,0.2,1.9,0.2,3,0.2c1,0,2.1-0.1,3-0.2V36.3c0-3.2-1.8-5.2-4.7-5.2h-0.8 C132.6,31.1,131.2,31.2,129.7,31.3 M134.8,26.6c1,0,2.6-0.3,3.2-0.8c0.3-0.7,0.5-1.7,0.5-2.6c0-0.8-0.2-1.9-0.5-2.6 c-0.6-0.4-2.1-0.7-3.2-0.7c-1.2,0-2.5,0.3-3.2,0.7c-0.3,0.7-0.5,1.7-0.5,2.6c0,0.8,0.2,1.9,0.5,2.6 C132.3,26.4,133.7,26.6,134.8,26.6 M105.4,31.2c-0.2,0.8-0.2,1.4-0.2,2.2s0.1,1.5,0.2,2.3l5-0.1v24.3c0.9,0.2,2,0.2,2.9,0.2 c1,0,2-0.1,3-0.2V35.6l7.8,0.1c0.2-0.8,0.2-1.5,0.2-2.3s-0.1-1.4-0.2-2.2l-8.2,0.1c-0.2-1.7-0.4-3.4-0.4-4.9c0-3.1,1.6-4.9,4.3-4.9 c1.6,0,3.5,0.4,5,0.9c0.9-0.9,1.4-2.7,1.4-4.1c-1.8-0.7-4.8-1.3-7.4-1.3c-5.7,0-8.9,3.9-8.9,9c0,1.6,0.2,3.4,0.3,5.2H105.4z M82.3,45.6c0-5.3,1.3-10.5,6.3-10.5S95,40.3,95,45.6c0,5.4-1.4,10.5-6.4,10.5S82.3,51,82.3,45.6 M80.2,33.7 c-3.1,3.1-4.1,7.1-4.1,11.9s1,8.8,4.1,11.9c2.1,2.1,5,3.2,8.4,3.2s6.3-1,8.4-3.2c3.1-3.1,4.1-7.1,4.1-11.9s-1-8.8-4.1-11.9 c-2.1-2.1-5-3.2-8.4-3.2C85.2,30.5,82.4,31.6,80.2,33.7 M56.2,34.1c1,0.9,2.1,2.9,2.1,6V60c0.8,0.2,1.9,0.2,3,0.2 c1,0,2.1-0.1,3-0.2V41c1.2-2.4,3.1-4.4,6.2-4.4c0.8,0.1,1.6,0.1,2.4,0.3c1-1.7,1.4-4.1,1.4-5.7c-1.1-0.2-2-0.3-3.1-0.3 c-3.9,0-6.3,2.2-7.6,5.2c-0.8-2.7-2.6-4.6-5.3-5.2C57.4,31.5,56.5,33,56.2,34.1 M32.7,25c1.9,0.1,4.3,0.1,5.9,0.1 c5.8,0,7.1,4.5,7.1,8s-1.3,8-7.1,8c-1.1,0-3.8,0.1-5.9,0.1V25z M294.4,43.2c0.3-5.1,2.2-8.2,5.9-8.2c4.2,0,5.8,3.4,5.8,7.4v0.8 H294.4z M336.7,60.8V1.7H1.7v59.1h31.1v-0.9l0,0v-14h6.1c7.8,0,13.3-4.5,13.3-12.9c0-8.7-5.6-12.9-13.3-12.9 c-3.9,0-7.6,0.1-11.9,0.2l-0.3,0.4v36.2h-21V5.6H333v51.3h-20.1h-1.8c-1.1,0-6.9,0-9.8,0c-4.9,0-6.5-4.5-6.8-9.3h17 c0.3-1.6,0.4-2.7,0.4-4.6c0-6.9-4-12.4-11.5-12.4c-8.1,0-12.1,6.5-12.1,15.1c0,6.5,2,12.6,7.9,14.4c0.3,0.1,0.5,0.2,0.8,0.2 c0.1,0,0.1,0,0.2,0s0.2,0.1,0.3,0.1c1.8,0.3,3.7,0.4,3.7,0.4H336.7z"></path> <path class="st1" d="M135.4,69.5c0.3,0,0.5,0,0.7,0c0.9,0,1.1,0.8,1.1,1.3s-0.2,1.3-1.1,1.3c-0.1,0-0.4,0-0.7,0V69.5z M139,70.8 c0-1.8-1.1-2.7-2.7-2.7c-0.8,0-1.6,0-2.6,0l-0.1,0.1v7.6c0.3,0.1,0.7,0.1,0.9,0.1s0.6,0,0.9-0.1v-2.4h0.9 C137.8,73.4,139,72.5,139,70.8 M125.7,72c0,1.2,0.3,2.5,1.2,3.3c0.5,0.4,1.1,0.7,2.1,0.7s1.6-0.3,2.1-0.7c0.9-0.8,1.2-2.1,1.2-3.3 c0-1.2-0.3-2.5-1.2-3.3c-0.5-0.4-1.1-0.7-2.1-0.7s-1.6,0.3-2.1,0.7C125.9,69.5,125.7,70.8,125.7,72 M127.5,72 c0-1.2,0.2-2.6,1.5-2.6s1.5,1.4,1.5,2.6s-0.2,2.6-1.5,2.6S127.5,73.2,127.5,72 M122.7,75.8c0.3,0.1,0.7,0.1,0.9,0.1s0.6,0,0.9-0.1 v-7.6c-0.3-0.1-0.7-0.1-0.9-0.1s-0.6,0-0.9,0.1v2.1c0,0.3,0,0.5,0,0.8c-0.2,0-0.4,0-0.6,0h-1.3c-0.2,0-0.4,0-0.6,0 c0-0.3,0-0.5,0-0.8v-2.1c-0.3-0.1-0.6-0.1-0.9-0.1c-0.2,0-0.6,0-0.9,0.1v7.6c0.3,0.1,0.7,0.1,0.9,0.1c0.2,0,0.6,0,0.9-0.1v-2.4 c0-0.3,0-0.5,0-0.8c0.2,0,0.4,0,0.6,0h1.3c0.2,0,0.4,0,0.6,0c0,0.3,0,0.5,0,0.8C122.7,73.4,122.7,75.8,122.7,75.8z M111.6,75.2 c0.8,0.5,1.9,0.8,2.8,0.8c2,0,2.9-1,2.9-2.4c0-1-0.6-1.7-1.7-2.2l-1.3-0.6c-0.5-0.2-0.7-0.4-0.7-0.7c0-0.3,0.2-0.7,0.9-0.7 c0.6,0,1.4,0.3,2,0.5c0.3-0.3,0.6-0.8,0.6-1.3c-0.6-0.3-1.6-0.6-2.6-0.6c-1.5,0-2.7,0.9-2.7,2.3c0,1.1,0.7,1.7,1.6,2.1l1.3,0.6 c0.6,0.3,0.7,0.6,0.7,0.8c0,0.4-0.3,0.7-0.9,0.7c-0.8,0-1.6-0.3-2.3-0.7C111.9,74.1,111.6,74.6,111.6,75.2 M108.8,75.8 c0.3,0.1,0.7,0.1,0.9,0.1c0.2,0,0.6,0,0.9-0.1v-7.6c-0.3-0.1-0.7-0.1-0.9-0.1c-0.2,0-0.6,0-0.9,0.1V75.8z M104.6,75.8v-3.1h0.2h2.2 c0.1-0.2,0.1-0.5,0.1-0.7s0-0.5-0.1-0.7h-2.2h-0.2v-0.7c0-0.3,0-0.6,0-0.9h0.8h1.4c0.6,0,0.9-0.2,0.9-0.8c0-0.2,0-0.5-0.1-0.7h-4.8 l-0.1,0.1v7.5c0.3,0.1,0.7,0.1,0.9,0.1C103.9,75.9,104.3,75.9,104.6,75.8 M94.9,72c0,1.2,0.3,2.5,1.2,3.3c0.5,0.4,1.1,0.7,2.1,0.7 s1.6-0.3,2.1-0.7c0.9-0.8,1.2-2.1,1.2-3.3c0-1.2-0.3-2.5-1.2-3.3c-0.5-0.4-1.1-0.7-2.1-0.7s-1.6,0.3-2.1,0.7 C95.1,69.5,94.9,70.8,94.9,72 M96.8,72c0-1.2,0.2-2.6,1.4-2.6c1.3,0,1.5,1.4,1.5,2.6s-0.2,2.6-1.5,2.6S96.8,73.2,96.8,72 M90.4,69.5c0.3,0,0.6,0,0.8,0c0.8,0,1,0.5,1,1.1s-0.2,1.1-1,1.1c-0.1,0-0.5,0-0.8,0V69.5z M94.1,70.5c0-1.7-1.2-2.4-2.7-2.4 c-0.8,0-1.7,0-2.7,0l-0.1,0.1v7.6c0.3,0.1,0.7,0.1,0.9,0.1c0.2,0,0.6,0,0.9-0.1V73h0.5c0.6,0,0.8,0.3,0.9,0.7l0.4,1.2 c0.2,0.7,0.4,1,1.1,1c0.5,0,1-0.2,1.2-0.5c-0.2-0.2-0.4-0.5-0.6-0.8l-0.3-0.9c-0.2-0.5-0.4-0.9-0.9-1 C93.4,72.3,94.1,71.6,94.1,70.5 M83.8,69.5c0.3,0,0.5,0,0.7,0c0.9,0,1.1,0.8,1.1,1.3s-0.2,1.3-1.1,1.3c-0.1,0-0.4,0-0.7,0V69.5z M87.5,70.8c0-1.8-1.1-2.7-2.7-2.7c-0.8,0-1.6,0-2.6,0l-0.1,0.1v7.6c0.3,0.1,0.7,0.1,0.9,0.1c0.2,0,0.6,0,0.9-0.1v-2.4h0.9 C86.3,73.4,87.5,72.5,87.5,70.8 M78.1,72.1c0-1.2-0.5-2-1.6-2c-0.6,0-1.1,0.3-1.5,0.6v-2.1c0-0.8-0.3-1-0.9-1h-0.6l-0.1,0.1v8.1 c0.3,0,0.6,0.1,0.8,0.1c0.3,0,0.6,0,0.9-0.1v-3.7c0.3-0.3,0.6-0.4,0.8-0.4c0.4,0,0.5,0.2,0.5,0.7v2.4c0,0.7,0.2,1.1,0.9,1.1 c0.4,0,0.8-0.2,1.1-0.4c-0.2-0.3-0.3-0.7-0.3-1.1C78.1,74.4,78.1,72.1,78.1,72.1z M70.9,72.7c0.2,0,0.4,0.1,0.7,0.1 c0.5,0,0.9-0.3,0.9-0.8c0-1.1-0.9-1.8-2.2-1.8c-1.2,0-2.5,0.8-2.5,3c0,1.8,0.9,2.9,2.5,2.9c0.8,0,1.7-0.3,2.2-0.9 c-0.1-0.3-0.4-0.8-0.7-1c-0.4,0.2-0.8,0.5-1.2,0.5c-0.6,0-1-0.4-1-1.6s0.2-1.7,0.7-1.7C70.8,71.4,70.9,71.8,70.9,72.7 M66.8,71.5 c0-0.8-0.5-1.3-1.2-1.3h-0.2c-0.2,0-0.6,0-1,0.1c-0.1,0.2-0.1,0.4-0.1,0.6s0,0.4,0.1,0.6h0.1c0.4,0,0.5,0.3,0.5,0.6v3.7 c0.3,0,0.6,0.1,0.9,0.1s0.6,0,0.9-0.1V71.5z M64.7,68.6c0,0.2,0,0.4,0.1,0.6c0.2,0.1,0.5,0.2,0.8,0.2s0.7-0.1,0.8-0.2 c0.1-0.2,0.1-0.4,0.1-0.6s0-0.4-0.1-0.6c-0.2-0.1-0.5-0.2-0.8-0.2S65,67.9,64.8,68C64.7,68.2,64.7,68.4,64.7,68.6 M59.8,71 c0.2,0.1,0.4,0.5,0.4,1.2v3.6c0.3,0,0.6,0.1,0.9,0.1s0.6,0,0.9-0.1v-3.5c0.2-0.4,0.5-0.6,0.9-0.6c0.2,0,0.4,0,0.6,0.1 c0.3-0.5,0.4-1.2,0.4-1.6c-0.2,0-0.4-0.1-0.7-0.1c-0.7,0-1.1,0.4-1.4,1c-0.3-0.6-0.7-1-1.4-1C60.1,70.3,59.8,70.7,59.8,71 M58.8,72.1c0-1.2-0.5-2-1.6-2c-0.6,0-1.1,0.3-1.6,0.7c-0.1-0.4-0.4-0.7-0.9-0.7H54l-0.1,0.1v5.6c0.2,0,0.6,0.1,0.9,0.1 c0.3,0,0.6,0,0.9-0.1v-3.7c0.3-0.3,0.6-0.4,0.8-0.4c0.4,0,0.5,0.2,0.5,0.7v2.4c0,0.7,0.2,1.1,0.9,1.1c0.4,0,0.8-0.2,1.1-0.4 c-0.2-0.3-0.3-0.7-0.3-1.1L58.8,72.1L58.8,72.1z M52.7,71.5c0-0.8-0.5-1.3-1.2-1.3h-0.2c-0.2,0-0.6,0-1,0.1 c-0.1,0.2-0.1,0.4-0.1,0.6s0,0.4,0.1,0.6h0.2c0.4,0,0.5,0.3,0.5,0.6v3.7c0.3,0,0.6,0.1,0.9,0.1c0.3,0,0.6,0,0.9-0.1v-4.3H52.7z M50.6,68.6c0,0.2,0,0.4,0.1,0.6c0.2,0.1,0.5,0.2,0.8,0.2s0.7-0.1,0.8-0.2c0.2-0.1,0.2-0.3,0.2-0.6c0-0.2,0-0.4-0.1-0.6 c-0.2-0.1-0.5-0.2-0.8-0.2S51,67.9,50.8,68C50.7,68.2,50.6,68.4,50.6,68.6 M47.3,71.3c0.5,0,0.7,0.4,0.7,0.9v0.1h-1.5 C46.6,71.7,46.8,71.3,47.3,71.3 M49.5,73.6c0.1-0.4,0.1-0.7,0.1-1.1c0-1.3-0.8-2.4-2.3-2.4c-1.8,0-2.5,1.3-2.5,3 c0,1.5,0.5,2.9,2.5,2.9c0.8,0,1.6-0.2,2.2-0.6c0-0.3-0.2-0.8-0.5-1c-0.5,0.2-0.9,0.3-1.4,0.3c-0.7,0-0.9-0.5-1-1.1 C46.6,73.6,49.5,73.6,49.5,73.6z M43.8,72.1c0-1.2-0.5-2-1.6-2c-0.6,0-1.1,0.3-1.5,0.6v-2.1c0-0.8-0.3-1-0.9-1h-0.7L39,67.7v8.1 c0.3,0,0.6,0.1,0.8,0.1c0.3,0,0.6,0,0.9-0.1v-3.7c0.3-0.3,0.6-0.4,0.8-0.4c0.4,0,0.5,0.2,0.5,0.7v2.4c0,0.7,0.2,1.1,0.9,1.1 c0.4,0,0.8-0.2,1.1-0.4c-0.2-0.3-0.3-0.7-0.3-1.1L43.8,72.1L43.8,72.1z M36.1,71.8v2.3c-0.3,0.3-0.5,0.4-0.8,0.4 c-0.4,0-0.7-0.4-0.7-1.5c0-1,0.2-1.7,0.8-1.7C35.6,71.4,35.8,71.5,36.1,71.8L36.1,71.8z M32.8,73c0,1.7,0.6,2.9,2,2.9 c0.5,0,0.9-0.2,1.3-0.4v0.4c0,0.7-0.3,1.1-1.1,1.1c-0.5,0-1-0.1-1.5-0.3c-0.2,0.3-0.4,0.8-0.4,1.3c0.6,0.2,1.4,0.4,2.1,0.4 c0.9,0,1.7-0.3,2.1-0.8c0.3-0.4,0.6-1.1,0.6-2.7V72c0-0.4,0.1-0.7,0.3-0.8c0-0.3-0.3-0.7-0.5-0.9c-0.5,0-0.8,0.2-1,0.4 c-0.3-0.3-0.8-0.5-1.5-0.5C33.8,70.1,32.8,71.1,32.8,73 M31.8,72.1c0-1.2-0.5-2-1.6-2c-0.6,0-1.1,0.3-1.6,0.7 c-0.1-0.4-0.4-0.7-0.9-0.7H27l-0.1,0.1v5.6c0.2,0,0.6,0.1,0.9,0.1s0.6,0,0.9-0.1v-3.7c0.3-0.3,0.6-0.4,0.8-0.4 c0.4,0,0.5,0.2,0.5,0.7v2.4c0,0.7,0.2,1.1,0.9,1.1c0.4,0,0.8-0.2,1.1-0.4c-0.2-0.3-0.3-0.7-0.3-1.1L31.8,72.1L31.8,72.1z M20.9,73.9c0,1.2,0.5,2,1.6,2c0.7,0,1.2-0.4,1.7-0.8c0.2,0.5,0.7,0.8,1.3,0.8c0.2-0.2,0.5-0.6,0.5-0.9c-0.2-0.1-0.3-0.5-0.3-0.8 v-4c-0.3,0-0.6-0.1-0.9-0.1s-0.6,0-0.9,0.1v3.7c-0.3,0.3-0.6,0.4-0.8,0.4c-0.4,0-0.5-0.2-0.5-0.7v-2.4c0-0.7-0.2-1.1-0.9-1.1 c-0.4,0-0.8,0.2-1.1,0.4c0.2,0.3,0.3,0.7,0.3,1.1C20.9,71.6,20.9,73.9,20.9,73.9z M15.7,74.1c-0.3,0.4-0.5,0.9-0.6,1.3 c0.5,0.3,1.2,0.5,1.8,0.5c2.1,0,2.6-1.3,2.6-3v-4.7c-0.3-0.1-0.7-0.1-0.9-0.1c-0.2,0-0.6,0-0.9,0.1v4.9c0,0.9-0.2,1.4-1,1.4 C16.4,74.4,16,74.3,15.7,74.1 M12.5,70.4l-0.1-0.1c-0.3-0.1-0.6-0.1-0.9-0.1c-0.2,0-0.5,0-0.7,0.1l-1,4.3c-0.1,0-0.1,0-0.1-0.1 c-0.1-0.4-0.2-1.1-0.3-1.5l-0.5-2.1c-0.1-0.6-0.4-0.8-0.8-0.8c-0.3,0-0.7,0.1-1.1,0.2l1.3,4.8c0.1,0.5,0.6,0.7,1.2,0.7V76 c-0.2,0.6-0.5,0.9-1.1,0.9c-0.4,0-0.8-0.1-1-0.2C7.2,77,7,77.5,7.1,77.9C7.4,78,8,78.1,8.4,78.1c1.7,0,2.3-1.1,2.7-2.6L12.5,70.4z M4.1,71.5c0.5,0,0.7,0.4,0.7,1.5c0,1-0.3,1.7-1,1.7c-0.2,0-0.3,0-0.5,0V72C3.6,71.6,3.9,71.5,4.1,71.5 M6.6,72.9 c0-1.6-0.7-2.8-2-2.8c-0.5,0-0.9,0.2-1.3,0.4v-1.9c0-0.8-0.3-1-1-1H1.8l-0.1,0.1v7.8c0.6,0.2,1.4,0.4,2.2,0.4 C5.6,75.9,6.7,74.8,6.6,72.9"></path> </g> </svg> 